<?xml version="1.0" encoding="UTF-8" standalone="no"?>
<!-- Created with Inkscape (http://www.inkscape.org/) -->
<svg
   xmlns:svg="http://www.w3.org/2000/svg"
   xmlns="http://www.w3.org/2000/svg"
   version="1.0"
   width="516.95789"
   height="470.28"
   id="svg2506"
   xml:space="preserve"><defs
     id="defs2509" /><g
     transform="matrix(1.25,0,0,-1.25,-92.710875,625.5)"
     id="g2515"><g
       id="g2517"><g
         id="g2519"><path
           d="M 256,256 L 272,256 L 272,448 L 256,448 L 256,256 z"
           id="path2521"
           style="fill:#00ff00;fill-opacity:1;fill-rule:evenodd;stroke:#00ff00;stroke-width:0.40000001;stroke-linecap:butt;stroke-linejoin:round;stroke-miterlimit:10;stroke-dasharray:none;stroke-opacity:1" /></g><g
         id="g2523"><path
           d="M 280,448 L 248,448 L 264,500 L 280,448 z"
           id="path2525"
           style="fill:#00ff00;fill-opacity:1;fill-rule:evenodd;stroke:#00ff00;stroke-width:0.40000001;stroke-linecap:butt;stroke-linejoin:round;stroke-miterlimit:10;stroke-dasharray:none;stroke-opacity:1" /></g></g><g
       id="g2527"><g
         id="g2529"><path
           d="M 259.273,273.336 L 254.057,258.21 L 435.568,195.617 L 440.784,210.743 L 259.273,273.336 z"
           id="path2531"
           style="fill:#ff0000;fill-opacity:1;fill-rule:evenodd;stroke:#ff0000;stroke-width:0.40000001;stroke-linecap:butt;stroke-linejoin:round;stroke-miterlimit:10;stroke-dasharray:none;stroke-opacity:1" /></g><g
         id="g2533"><path
           d="M 432.96,188.054 L 443.392,218.305 L 487.335,186.227 L 432.96,188.054 z"
           id="path2535"
           style="fill:#ff0000;fill-opacity:1;fill-rule:evenodd;stroke:#ff0000;stroke-width:0.40000001;stroke-linecap:butt;stroke-linejoin:round;stroke-miterlimit:10;stroke-dasharray:none;stroke-opacity:1" /></g></g><g
       id="g2537"><g
         id="g2539"><path
           d="M 274.246,265.035 L 264.617,277.813 L 111.282,162.26 L 120.912,149.482 L 274.246,265.035 z"
           id="path2541"
           style="fill:#0000ff;fill-opacity:1;fill-rule:evenodd;stroke:#0000ff;stroke-width:0.40000001;stroke-linecap:butt;stroke-linejoin:round;stroke-miterlimit:10;stroke-dasharray:none;stroke-opacity:1" /></g><g
         id="g2543"><path
           d="M 106.467,168.649 L 125.726,143.093 L 74.5687,124.576 L 106.467,168.649 z"
           id="path2545"
           style="fill:#0000ff;fill-opacity:1;fill-rule:evenodd;stroke:#0000ff;stroke-width:0.40000001;stroke-linecap:butt;stroke-linejoin:round;stroke-miterlimit:10;stroke-dasharray:none;stroke-opacity:1" /></g></g><g
       id="g2547"><path
         d="M 278.422,264 C 278.422,271.965 271.965,278.422 264,278.422 C 256.035,278.422 249.578,271.965 249.578,264 C 249.578,256.035 256.035,249.578 264,249.578 C 271.965,249.578 278.422,256.035 278.422,264 z"
         id="path2549"
         style="fill:#000000;fill-opacity:1;fill-rule:evenodd;stroke:#ffffff;stroke-width:0.40000001;stroke-linecap:butt;stroke-linejoin:round;stroke-miterlimit:10;stroke-dasharray:none;stroke-opacity:1" /></g></g></svg>